<?xml version="1.0" encoding="UTF-8"?>
<svg version="1.1" xmlns="http://www.w3.org/2000/svg" width="200" height="200">
<path d="M0 0 C66 0 132 0 200 0 C200 66 200 132 200 200 C134 200 68 200 0 200 C0 134 0 68 0 0 Z " fill="#FDFDFD" transform="translate(0,0)"/>
<path d="M0 0 C1.24909734 0.88931677 2.48004437 1.80491832 3.6875 2.75 C4.6775 3.513125 5.6675 4.27625 6.6875 5.0625 C7.6775 5.8978125 7.6775 5.8978125 8.6875 6.75 C8.3575 7.41 8.0275 8.07 7.6875 8.75 C7.15511719 8.42902344 6.62273437 8.10804687 6.07421875 7.77734375 C0.62803639 5.43307868 -6.29179801 5.8043091 -11.8828125 7.5546875 C-24.30800302 13.83222278 -31.14003912 27.52702448 -36.125 39.9375 C-37.75004157 45.15473872 -39.06269933 50.43169928 -40.3125 55.75 C-39.41273437 55.38648438 -38.51296875 55.02296875 -37.5859375 54.6484375 C-29.55066983 51.47900035 -21.45336025 48.79594188 -13.125 46.5 C-12.24827637 46.25427246 -11.37155273 46.00854492 -10.46826172 45.75537109 C1.05869022 42.65746273 12.37555139 41.37647549 24.30859375 41.37939453 C26.31855029 41.37498673 28.32636101 41.33839364 30.3359375 41.30078125 C41.14122707 41.26874976 50.21250327 42.78649445 58.34765625 50.28515625 C61.29743026 53.51012784 61.96256561 55.55761193 61.9375 59.8125 C61.94523437 61.12927734 61.94523437 61.12927734 61.953125 62.47265625 C61.6875 64.75 61.6875 64.75 59.6875 66.75 C59.0275 66.75 58.3675 66.75 57.6875 66.75 C57.44 65.5125 57.1925 64.275 56.9375 63 C55.95086166 59.1683292 55.00650344 57.10823929 51.6875 54.75 C28.26703347 43.64029152 -5.03880666 51.94462247 -28.25927734 60.1706543 C-29.76492429 60.71280849 -31.26800329 61.26216234 -32.76806641 61.81958008 C-35.75630156 62.91989373 -38.09995356 63.75 -41.3125 63.75 C-40.20249972 97.96664274 -40.20249972 97.96664274 -22.6328125 126.35546875 C-18.31352769 129.90842883 -13.8856697 131.10636609 -8.3125 130.75 C-4.60744281 129.60267638 -4.60744281 129.60267638 -1.3125 127.75 C-0.178125 127.193125 0.95625 126.63625 2.125 126.0625 C2.970625 125.629375 3.81625 125.19625 4.6875 124.75 C4.04677063 130.07720706 1.88392059 131.89004076 -2.13671875 135.16796875 C-7.12574507 138.79553726 -11.86454379 140.3995374 -17.984375 140.16015625 C-25.3501952 138.86248658 -31.96254326 133.66594116 -36.3125 127.75 C-45.58530106 112.60233849 -49.0952045 96.84014103 -49.875 79.25 C-49.91818359 78.3321875 -49.96136719 77.414375 -50.00585938 76.46875 C-50.11083456 74.22927939 -50.21299248 71.98971908 -50.3125 69.75 C-58.66430396 73.94234254 -66.01692589 78.92152492 -73.3125 84.75 C-74.14136719 85.3996875 -74.97023438 86.049375 -75.82421875 86.71875 C-82.58257664 92.31820441 -89.60341148 100.20612591 -90.5859375 109.2734375 C-90.84699156 115.36137921 -90.84699156 115.36137921 -88.3125 120.75 C-80.9284308 125.6727128 -74.00610024 126.32980932 -65.3125 126.75 C-71.33461671 130.54786758 -80.46425707 129.40764365 -87.23828125 128.25 C-94.15421501 126.35699169 -99.97090558 123.32575386 -104.8125 118 C-107.06365768 113.12249169 -107.24236739 108.90908591 -105.72265625 103.74609375 C-98.55211548 87.38933024 -79.94981524 74.73951543 -64.26171875 67.3125 C-63.40054443 66.89540771 -62.53937012 66.47831543 -61.65209961 66.04858398 C-59.96130363 65.24152261 -58.25505173 64.46587171 -56.53344727 63.72680664 C-52.03741924 61.60675756 -52.03741924 61.60675756 -49.42285156 57.57128906 C-48.9154294 54.96883616 -48.61300859 52.38374318 -48.3125 49.75 C-43.92394946 30.76826197 -37.55086972 11.26853271 -20.609375 -0.0078125 C-14.26495657 -3.43897757 -6.19818668 -3.83417241 0 0 Z " fill="#D77A32" transform="translate(116.3125,34.25)"/>
<path d="M0 0 C0 2.31 0 4.62 0 7 C-0.598125 7.268125 -1.19625 7.53625 -1.8125 7.8125 C-3.98635899 8.84915632 -3.98635899 8.84915632 -5.29296875 10.34765625 C-7.49440232 12.47856335 -9.91910769 13.97458728 -12.5 15.625 C-23.78349139 23.09281797 -37.14326905 32.260396 -41 46 C-41.67714033 51.31709052 -42.03853757 55.44219364 -39 60 C-31.6159308 64.9227128 -24.69360024 65.57980932 -16 66 C-22.02211671 69.79786758 -31.15175707 68.65764365 -37.92578125 67.5 C-44.84171501 65.60699169 -50.65840558 62.57575386 -55.5 57.25 C-57.75115768 52.37249169 -57.92986739 48.15908591 -56.41015625 42.99609375 C-48.38644955 24.69316833 -27.65067345 12.98005665 -10.8125 3.9375 C-10.081521 3.54304688 -9.35054199 3.14859375 -8.59741211 2.7421875 C-3.36919575 0 -3.36919575 0 0 0 Z " fill="#055293" transform="translate(67,95)"/>
<path d="M0 0 C0 2.97 0 5.94 0 9 C-0.68449219 8.83628906 -1.36898437 8.67257813 -2.07421875 8.50390625 C-5.3743278 7.93552966 -8.46554069 7.90369233 -11.8125 7.9375 C-13.55466797 7.95103516 -13.55466797 7.95103516 -15.33203125 7.96484375 C-16.21246094 7.97644531 -17.09289062 7.98804687 -18 8 C-18 9.98 -18 11.96 -18 14 C-16.92298828 14.35964844 -16.92298828 14.35964844 -15.82421875 14.7265625 C-12.58160176 16.18865536 -10.43849105 17.9834015 -7.8125 20.375 C-6.95269531 21.14585938 -6.09289062 21.91671875 -5.20703125 22.7109375 C-2.10376511 25.92954628 -1.11764471 27.94119757 -0.625 32.375 C-1.07822709 36.75619522 -2.17083011 38.64966723 -5 42 C-10.41323134 46.08754203 -14.21672305 47.44480505 -21 47 C-25.72143778 45.70093268 -29.90412022 43.68792111 -34 41 C-33.67 38.36 -33.34 35.72 -33 33 C-28.39726027 33.76712329 -28.39726027 33.76712329 -26.1875 35.0625 C-21.94772662 36.87954574 -17.32669774 36.44223258 -13 35 C-12.58129447 32.66928121 -12.58129447 32.66928121 -13 30 C-15.15406853 27.91324611 -17.49565649 26.34155541 -19.97265625 24.6640625 C-24.81470486 21.24295152 -27.64380812 18.49778105 -30 13 C-30.65775179 8.97127029 -30.22587573 7.41141651 -28.25 3.8125 C-20.85906519 -5.42616852 -10.06966767 -4.47540785 0 0 Z " fill="#0B5493" transform="translate(120,98)"/>
<path d="M0 0 C0.125 5.75 0.125 5.75 -1 8 C-1.25263516 12.95164906 -1.19248316 17.91730457 -1.1875 22.875 C-1.1882251 23.5954248 -1.1889502 24.31584961 -1.18969727 25.05810547 C-1.18838637 36.80633631 -0.56877863 48.34621588 1 60 C1.66 60 2.32 60 3 60 C3 60.66 3 61.32 3 62 C3.66 62 4.32 62 5 62 C5.27972656 62.76183594 5.55945313 63.52367187 5.84765625 64.30859375 C9.47954286 73.66274544 14.4195766 83.54768705 24 88 C30.14437084 89.74928707 34.31205128 89.00495404 40 86 C41.134375 85.443125 42.26875 84.88625 43.4375 84.3125 C44.283125 83.879375 45.12875 83.44625 46 83 C45.35927063 88.32720706 43.19642059 90.14004076 39.17578125 93.41796875 C34.18675493 97.04553726 29.44795621 98.6495374 23.328125 98.41015625 C15.9623048 97.11248658 9.34995674 91.91594116 5 86 C-4.34248704 70.73850237 -8.22214544 54.80660668 -8.0625 37 C-8.05798828 36.03449219 -8.05347656 35.06898437 -8.04882812 34.07421875 C-8.03715417 31.71607911 -8.02078021 29.35807398 -8 27 C-7.34 27 -6.68 27 -6 27 C-6.02320312 26.45214844 -6.04640625 25.90429688 -6.0703125 25.33984375 C-6.19542404 19.84387254 -5.84245797 14.45557677 -5.1875 9 C-5.03667969 7.72125 -4.88585937 6.4425 -4.73046875 5.125 C-3.5325 0 -3.5325 0 0 0 Z " fill="#DB7626" transform="translate(75,76)"/>
<path d="M0 0 C1.3806383 -0.01149722 2.76123293 -0.03191373 4.14160156 -0.06152344 C15.67813407 -0.308007 25.70387195 0.73005116 34.49169922 8.83032227 C37.44147323 12.05529385 38.10660858 14.10277795 38.08154297 18.35766602 C38.08927734 19.67444336 38.08927734 19.67444336 38.09716797 21.01782227 C37.83154297 23.29516602 37.83154297 23.29516602 35.83154297 25.29516602 C35.17154297 25.29516602 34.51154297 25.29516602 33.83154297 25.29516602 C33.58404297 24.05766602 33.33654297 22.82016602 33.08154297 21.54516602 C32.09490463 17.71349522 31.15054641 15.6534053 27.83154297 13.29516602 C19.6004174 9.39909991 11.3203659 7.98816501 2.30029297 8.09985352 C1.42377075 8.10268341 0.54724854 8.10551331 -0.35583496 8.10842896 C-3.12685402 8.11953109 -5.89753738 8.14461648 -8.66845703 8.17016602 C-10.55907733 8.18020872 -12.44970275 8.1893323 -14.34033203 8.19750977 C-18.94983433 8.21943766 -23.55908897 8.25389757 -28.16845703 8.29516602 C-28.16845703 8.95516602 -28.16845703 9.61516602 -28.16845703 10.29516602 C-29.94736328 10.7321582 -29.94736328 10.7321582 -31.76220703 11.17797852 C-40.78448199 13.44572433 -49.53803029 15.94486344 -58.17822266 19.41479492 C-61.02127834 20.54829592 -63.07227985 21.29516602 -66.16845703 21.29516602 C-66.16845703 19.31516602 -66.16845703 17.33516602 -66.16845703 15.29516602 C-45.48261957 5.79313499 -22.75329237 0.13144439 0 0 Z " fill="#12558D" transform="translate(140.16845703125,75.704833984375)"/>
<path d="M0 0 C3.3 0 6.6 0 10 0 C10.33 1.98 10.66 3.96 11 6 C12.65 6 14.3 6 16 6 C16 8.97 16 11.94 16 15 C13.36 15 10.72 15 8 15 C7.67 19.95 7.34 24.9 7 30 C10.465 29.505 10.465 29.505 14 29 C15.60725635 32.21451269 15.05748185 35.43612536 15 39 C10.66052737 40.44649088 6.53000056 40.66468908 2 40 C-0.82424288 37.80977082 -2.41508603 36.16982793 -4 33 C-4.50686915 26.6582418 -3.79978312 21.07426803 -2 15 C-2.804375 15.020625 -3.60875 15.04125 -4.4375 15.0625 C-7 15 -7 15 -8 14 C-8.04092937 11.66702567 -8.04241723 9.33294775 -8 7 C-4.535 6.505 -4.535 6.505 -1 6 C-0.67 4.02 -0.34 2.04 0 0 Z " fill="#085392" transform="translate(130,104)"/>
<path d="M0 0 C0 2.31 0 4.62 0 7 C-0.598125 7.268125 -1.19625 7.53625 -1.8125 7.8125 C-3.98635899 8.84915632 -3.98635899 8.84915632 -5.29296875 10.34765625 C-7.49440232 12.47856335 -9.91910769 13.97458728 -12.5 15.625 C-23.97214646 23.21767664 -36.81176452 32.2034596 -41 46 C-41.49018511 49.32835691 -41.80406774 52.6421264 -42 56 C-44.56377118 52.15434323 -44.5099662 50.58969584 -44 46 C-41.7727651 40.04477536 -38.64510211 35.25570358 -34.359375 30.60546875 C-32.40857598 28.30150784 -31.20705804 25.74940997 -30 23 C-32.76264289 22.40267181 -35.16032769 22 -38 22 C-33.37022695 17.82648145 -28.62449174 14.25558979 -23.3125 11 C-22.2757312 10.35925537 -22.2757312 10.35925537 -21.21801758 9.70556641 C-5.3129977 0 -5.3129977 0 0 0 Z " fill="#0C538F" transform="translate(67,95)"/>
<path d="M0 0 C3.3 0 6.6 0 10 0 C10.15401837 6.60939695 9.61253826 12.792495 8.5625 19.3125 C8.42779297 20.19228516 8.29308594 21.07207031 8.15429688 21.97851562 C7.57462393 25.70256082 6.95932926 29.35248019 6 33 C4.52093108 33.02689216 3.04172517 33.04634621 1.5625 33.0625 C0.73878906 33.07410156 -0.08492187 33.08570313 -0.93359375 33.09765625 C-3 33 -3 33 -4 32 C-3.91734671 21.31706213 -1.65430006 10.52925576 0 0 Z " fill="#035193" transform="translate(152,111)"/>
<path d="M0 0 C-0.556875 0.37769531 -1.11375 0.75539062 -1.6875 1.14453125 C-16.25333518 11.65063196 -23.22086421 27.99742282 -27.25390625 44.97265625 C-28.0848307 48.34420832 -29.03016871 51.66594479 -30 55 C-29.39115967 54.7733667 -28.78231934 54.5467334 -28.1550293 54.31323242 C-25.33430617 53.26643488 -22.51093932 52.226948 -19.6875 51.1875 C-18.73037109 50.83107422 -17.77324219 50.47464844 -16.78710938 50.10742188 C0.57196603 43.73658275 0.57196603 43.73658275 8 44 C8 43.34 8 42.68 8 42 C12.09680565 40.85595013 16.04053531 40.87390533 20.265625 40.90234375 C21.05902283 40.9037587 21.85242065 40.90517365 22.66986084 40.90663147 C25.19661272 40.91221585 27.72327504 40.92476546 30.25 40.9375 C31.96614455 40.94251702 33.68229049 40.94707957 35.3984375 40.95117188 C39.59899269 40.96218016 43.79948117 40.97943404 48 41 C48 41.33 48 41.66 48 42 C47.40276123 42.01458252 46.80552246 42.02916504 46.19018555 42.04418945 C22.82922793 42.67629109 1.52377203 45.90214161 -20.45556641 54.06958008 C-23.44380156 55.16989373 -25.78745356 56 -29 56 C-28.46674074 73.09799725 -28.46674074 73.09799725 -26 90 C-25.66055205 91.99897128 -25.32578384 93.99875639 -25 96 C-25.33 95.34 -25.66 94.68 -26 94 C-26.66 94 -27.32 94 -28 94 C-30.72631797 82.91297359 -31.18097684 72.01443812 -31.1875 60.625 C-31.19974609 59.47644531 -31.21199219 58.32789063 -31.22460938 57.14453125 C-31.22654297 56.03722656 -31.22847656 54.92992187 -31.23046875 53.7890625 C-31.23457764 52.79600098 -31.23868652 51.80293945 -31.24291992 50.77978516 C-30.9849598 47.82789178 -30.20471429 45.69042247 -29 43 C-28.67540498 41.61145464 -28.38286526 40.21497126 -28.125 38.8125 C-25.74417845 27.71420878 -20.62355429 14.54561001 -12 7 C-10.44619756 5.17408495 -8.93233515 3.32128154 -7.4296875 1.453125 C-4.87120234 -1.14730254 -3.37789932 -1.12596644 0 0 Z " fill="#AD7E59" transform="translate(104,42)"/>
<path d="M0 0 C0.515625 0.66 1.03125 1.32 1.5625 2 C2.366875 2.99 3.17125 3.98 4 5 C4.50917969 5.65097656 5.01835938 6.30195313 5.54296875 6.97265625 C9.37349492 11.66220202 12.99949921 15.44030304 19 17 C26.40288809 17.5749816 31.91843896 14.98092522 38 11 C37.35927063 16.32720706 35.19642059 18.14004076 31.17578125 21.41796875 C25.44819404 25.58255191 19.94730122 26.98168387 13 26 C9.4375 24.5 9.4375 24.5 7 23 C7 22.67 7 22.34 7 22 C8.98 22 10.96 22 13 22 C13 21.34 13 20.68 13 20 C12.34 20 11.68 20 11 20 C11 19.34 11 18.68 11 18 C10.01 17.67 9.02 17.34 8 17 C8.33 15.68 8.66 14.36 9 13 C8.01 13 7.02 13 6 13 C5.67 13.99 5.34 14.98 5 16 C4.34 16 3.68 16 3 16 C3.57584432 13.61435923 4.22227595 11.33317216 5 9 C4.01 8.67 3.02 8.34 2 8 C2 6.68 2 5.36 2 4 C1.34 4 0.68 4 0 4 C0 2.68 0 1.36 0 0 Z " fill="#DF721C" transform="translate(83,148)"/>
<path d="M0 0 C2.02433353 1.2375171 3.89011063 2.55376522 5.7578125 4.015625 C6.7478125 4.77875 7.7378125 5.541875 8.7578125 6.328125 C9.4178125 6.885 10.0778125 7.441875 10.7578125 8.015625 C10.4278125 8.675625 10.0978125 9.335625 9.7578125 10.015625 C9.22542969 9.68949219 8.69304687 9.36335938 8.14453125 9.02734375 C3.3511933 6.99547055 -2.12486494 7.8303014 -7.2421875 8.015625 C-8.16 8.04527344 -9.0778125 8.07492188 -10.0234375 8.10546875 C-12.68148236 8.23105168 -12.68148236 8.23105168 -16.2421875 9.015625 C-17.51645244 10.9899881 -17.51645244 10.9899881 -18.2421875 13.015625 C-18.9021875 13.015625 -19.5621875 13.015625 -20.2421875 13.015625 C-20.4896875 13.593125 -20.7371875 14.170625 -20.9921875 14.765625 C-22.40902067 17.3159247 -24.11846287 19.03348201 -26.2421875 21.015625 C-25.9121875 19.695625 -25.5821875 18.375625 -25.2421875 17.015625 C-26.2321875 17.015625 -27.2221875 17.015625 -28.2421875 17.015625 C-28.2421875 16.355625 -28.2421875 15.695625 -28.2421875 15.015625 C-26.5921875 15.015625 -24.9421875 15.015625 -23.2421875 15.015625 C-22.9121875 13.695625 -22.5821875 12.375625 -22.2421875 11.015625 C-21.2521875 11.015625 -20.2621875 11.015625 -19.2421875 11.015625 C-19.2421875 10.025625 -19.2421875 9.035625 -19.2421875 8.015625 C-17.9221875 7.685625 -16.6021875 7.355625 -15.2421875 7.015625 C-15.2421875 6.355625 -15.2421875 5.695625 -15.2421875 5.015625 C-18.2121875 5.675625 -21.1821875 6.335625 -24.2421875 7.015625 C-18.0393994 0.06098379 -9.07346397 -3.98347199 0 0 Z " fill="#DD721D" transform="translate(114.2421875,32.984375)"/>
<path d="M0 0 C0.8652832 -0.00064453 1.73056641 -0.00128906 2.62207031 -0.00195312 C6.13711136 0.02874592 8.82246795 0.06582265 12.1875 1.1875 C12.1875 1.8475 12.1875 2.5075 12.1875 3.1875 C12.8475 3.1875 13.5075 3.1875 14.1875 3.1875 C14.1875 3.8475 14.1875 4.5075 14.1875 5.1875 C14.8475 5.5175 15.5075 5.8475 16.1875 6.1875 C12.0663838 7.5612054 8.14334998 7.61421958 3.88793945 6.68579102 C0.66301779 6.09072139 -2.36518084 6.07539727 -5.64453125 6.08984375 C-6.93681641 6.09306641 -8.22910156 6.09628906 -9.56054688 6.09960938 C-10.91536526 6.10796335 -12.27018297 6.11642828 -13.625 6.125 C-14.99934735 6.13002 -16.37369645 6.13458203 -17.74804688 6.13867188 C-21.10290924 6.15044332 -24.45768221 6.16688717 -27.8125 6.1875 C-27.4825 4.8675 -27.1525 3.5475 -26.8125 2.1875 C-17.83992864 0.78396928 -9.0837398 -0.00661839 0 0 Z " fill="#055393" transform="translate(148.8125,75.8125)"/>
<path d="M0 0 C6.80203375 -0.37634203 11.75690073 0.22528921 18 3 C18 5.97 18 8.94 18 12 C17.31550781 11.83628906 16.63101563 11.67257813 15.92578125 11.50390625 C12.6256722 10.93552966 9.53445931 10.90369233 6.1875 10.9375 C4.44533203 10.95103516 4.44533203 10.95103516 2.66796875 10.96484375 C1.78753906 10.97644531 0.90710938 10.98804687 0 11 C0 12.98 0 14.96 0 17 C2.475 17.99 2.475 17.99 5 19 C3.1875 19.625 3.1875 19.625 1 20 C0.01 19.34 -0.98 18.68 -2 18 C-2.33 18.99 -2.66 19.98 -3 21 C-3.99 21 -4.98 21 -6 21 C-5.34 19.68 -4.68 18.36 -4 17 C-3.34 17 -2.68 17 -2 17 C-2.185625 16.113125 -2.37125 15.22625 -2.5625 14.3125 C-2.98042484 11.14821189 -2.80777742 9.05160358 -2 6 C1.465 5.505 1.465 5.505 5 5 C5.33 4.01 5.66 3.02 6 2 C3.03 1.505 3.03 1.505 0 1 C0 0.67 0 0.34 0 0 Z " fill="#0C5490" transform="translate(102,95)"/>
<path d="M0 0 C0.33 0 0.66 0 1 0 C1.45763495 5.72043683 0.71653644 8.59883843 -3 13 C-8.41323134 17.08754203 -12.21672305 18.44480505 -19 18 C-23.72143778 16.70093268 -27.90412022 14.68792111 -32 12 C-31.67 9.36 -31.34 6.72 -31 4 C-26.61110675 4.66498383 -23.0188515 6.18757677 -19 8 C-19 8.99 -19 9.98 -19 11 C-19.99 11.33 -20.98 11.66 -22 12 C-17.71 12.66 -13.42 13.32 -9 14 C-9 13.34 -9 12.68 -9 12 C-8.34 12 -7.68 12 -7 12 C-6.67 11.34 -6.34 10.68 -6 10 C-5.01 10.33 -4.02 10.66 -3 11 C-2.01 7.37 -1.02 3.74 0 0 Z " fill="#3E719D" transform="translate(118,127)"/>
<path d="M0 0 C2.8125 1.125 2.8125 1.125 5 3 C6.0625 5.875 6.0625 5.875 6 9 C4.5 11.875 4.5 11.875 2 14 C-1.96569988 14.63734462 -4.03280512 14.61999672 -7.4375 12.4375 C-9.58016848 9.09493717 -9.49573337 6.89504791 -9 3 C-6.83328485 -0.73156498 -4.02342982 -0.48281158 0 0 Z " fill="#D97A30" transform="translate(161,95)"/>
<path d="M0 0 C0 0.66 0 1.32 0 2 C-1.32 2.33 -2.64 2.66 -4 3 C-4 3.99 -4 4.98 -4 6 C-4.99 6 -5.98 6 -7 6 C-7.33 7.65 -7.66 9.3 -8 11 C-9.65 10.67 -11.3 10.34 -13 10 C-13 10.66 -13 11.32 -13 12 C-12.01 12 -11.02 12 -10 12 C-10.66666667 13.66666667 -11.33333333 15.33333333 -12 17 C-12.28875 17.9075 -12.5775 18.815 -12.875 19.75 C-14 22 -14 22 -16.125 22.8125 C-16.74375 22.874375 -17.3625 22.93625 -18 23 C-18 23.99 -18 24.98 -18 26 C-19.32 25.67 -20.64 25.34 -22 25 C-21 23 -21 23 -18 22 C-18.33 21.34 -18.66 20.68 -19 20 C-19.80248328 15.809254 -19.52269465 13.92105902 -17.390625 10.1640625 C-12.3264685 2.91051504 -9.16125558 -0.42610491 0 0 Z " fill="#E57014" transform="translate(99,38)"/>
<path d="M0 0 C0.7736697 2.65258181 1.17836817 5.26357685 1.5 8 C1.90601333 12.08093661 1.90601333 12.08093661 3 16 C3.99 16.33 4.98 16.66 6 17 C6 17.66 6 18.32 6 19 C9.2409817 19.95322991 10.63763572 20.15299825 13.8125 18.8125 C17.96259145 17.75463355 19.58065737 18.88389075 23.16796875 20.95703125 C26.76693954 23.00591228 30.12721038 23.2568868 34.1875 23.5625 C35.27417969 23.64628906 36.36085937 23.73007813 37.48046875 23.81640625 C38.72763672 23.90728516 38.72763672 23.90728516 40 24 C33.97788329 27.79786758 24.84824293 26.65764365 18.07421875 25.5 C11.15828499 23.60699169 5.34159442 20.57575386 0.5 15.25 C-1.8577347 10.14157481 -1.76868133 5.30604399 0 0 Z " fill="#275E8E" transform="translate(11,137)"/>
<path d="M0 0 C0.79339783 0.00141495 1.58679565 0.0028299 2.40423584 0.00428772 C4.93098772 0.0098721 7.45765004 0.02242171 9.984375 0.03515625 C11.70051955 0.04017327 13.41666549 0.04473582 15.1328125 0.04882812 C19.33336769 0.05983641 23.53385617 0.07709029 27.734375 0.09765625 C27.734375 0.42765625 27.734375 0.75765625 27.734375 1.09765625 C26.83851685 1.11953003 26.83851685 1.11953003 25.92456055 1.1418457 C-1.10089498 1.87310146 -24.75976359 7.35615889 -50.265625 16.09765625 C-50.265625 15.43765625 -50.265625 14.77765625 -50.265625 14.09765625 C-46.83093675 12.81913593 -43.39238601 11.55131875 -39.953125 10.28515625 C-38.99599609 9.92873047 -38.03886719 9.57230469 -37.05273438 9.20507812 C-19.69365897 2.834239 -19.69365897 2.834239 -12.265625 3.09765625 C-12.265625 2.43765625 -12.265625 1.77765625 -12.265625 1.09765625 C-8.16881935 -0.04639362 -4.22508969 -0.02843842 0 0 Z " fill="#6E89A0" transform="translate(124.265625,82.90234375)"/>
<path d="M0 0 C0.66 0 1.32 0 2 0 C2.15401837 6.60939695 1.61253826 12.792495 0.5625 19.3125 C0.42779297 20.19228516 0.29308594 21.07207031 0.15429688 21.97851562 C-0.42537607 25.70256082 -1.04067074 29.35248019 -2 33 C-3.47906892 33.02689216 -4.95827483 33.04634621 -6.4375 33.0625 C-7.26121094 33.07410156 -8.08492187 33.08570313 -8.93359375 33.09765625 C-11 33 -11 33 -12 32 C-11.77928464 25.63938459 -10.99953669 19.28280205 -10 13 C-9.67 13 -9.34 13 -9 13 C-8.89522488 18.78591511 -9.00749455 24.29309366 -10 30 C-8.02 30 -6.04 30 -4 30 C-3.86722656 28.78441406 -3.73445312 27.56882813 -3.59765625 26.31640625 C-3.41949909 24.73174516 -3.24110125 23.1471111 -3.0625 21.5625 C-2.93198242 20.35883789 -2.93198242 20.35883789 -2.79882812 19.13085938 C-2.11328125 13.11328125 -2.11328125 13.11328125 -1 12 C-0.76572222 9.98405418 -0.58663876 7.961526 -0.4375 5.9375 C-0.35371094 4.83277344 -0.26992187 3.72804688 -0.18359375 2.58984375 C-0.12300781 1.73519531 -0.06242188 0.88054687 0 0 Z " fill="#4E7798" transform="translate(160,111)"/>
<path d="M0 0 C0.33 0 0.66 0 1 0 C1.027193 1.58323688 1.04648306 3.16661062 1.0625 4.75 C1.07410156 5.63171875 1.08570312 6.5134375 1.09765625 7.421875 C1.00826198 9.7818838 0.66912821 11.74498524 0 14 C-1.65 14.33 -3.3 14.66 -5 15 C-5 15.66 -5 16.32 -5 17 C-6.58294782 17.05437607 -8.16644256 17.09296271 -9.75 17.125 C-10.63171875 17.14820313 -11.5134375 17.17140625 -12.421875 17.1953125 C-15.1135858 16.99139502 -16.69904974 16.36551721 -19 15 C-17.68 14.67 -16.36 14.34 -15 14 C-15 13.01 -15 12.02 -15 11 C-10.71 10.34 -6.42 9.68 -2 9 C-1.67 7.02 -1.34 5.04 -1 3 C-0.67 2.01 -0.34 1.02 0 0 Z " fill="#025194" transform="translate(114,124)"/>
<path d="M0 0 C-0.88300781 0.54527344 -1.76601563 1.09054688 -2.67578125 1.65234375 C-23.52456759 14.60627687 -23.52456759 14.60627687 -36 35 C-36.49018511 38.32835691 -36.80406774 41.6421264 -37 45 C-39.56377118 41.15434323 -39.5099662 39.58969584 -39 35 C-33.6456344 19.50872866 -19.20665572 8.74151404 -5.8203125 0.37109375 C-3 -1 -3 -1 0 0 Z " fill="#748A9C" transform="translate(62,106)"/>
<path d="M0 0 C0.33 0.99 0.66 1.98 1 3 C1.66 3 2.32 3 3 3 C3 3.66 3 4.32 3 5 C3.66 5 4.32 5 5 5 C5.99 8.3 6.98 11.6 8 15 C4.535 13.02 4.535 13.02 1 11 C1 13.97 1 16.94 1 20 C-2.81926912 15.48631832 -4.34720628 10.90250682 -4 5 C-3.01 4.67 -2.02 4.34 -1 4 C-0.26676204 1.98491642 -0.26676204 1.98491642 0 0 Z " fill="#DA782C" transform="translate(75,133)"/>
<path d="M0 0 C0 2.31 0 4.62 0 7 C-1.62249941 7.83819158 -3.24808497 8.6704116 -4.875 9.5 C-5.77992187 9.9640625 -6.68484375 10.428125 -7.6171875 10.90625 C-10 12 -10 12 -12 12 C-12 11.34 -12 10.68 -12 10 C-11.01 9.67 -10.02 9.34 -9 9 C-9 8.34 -9 7.68 -9 7 C-9.66 6.67 -10.32 6.34 -11 6 C-11.33 6.66 -11.66 7.32 -12 8 C-13.65 8 -15.3 8 -17 8 C-14.12071475 5.72195761 -11.2169671 3.95965316 -7.9375 2.3125 C-7.08027344 1.87550781 -6.22304688 1.43851562 -5.33984375 0.98828125 C-3 0 -3 0 0 0 Z " fill="#1D5482" transform="translate(67,95)"/>
<path d="M0 0 C3.3 0 6.6 0 10 0 C10.33 1.98 10.66 3.96 11 6 C12.65 6 14.3 6 16 6 C16 8.97 16 11.94 16 15 C13.36 15 10.72 15 8 15 C8 16.98 8 18.96 8 21 C7.67 21 7.34 21 7 21 C7 18.36 7 15.72 7 13 C9.31 13 11.62 13 14 13 C14 11.35 14 9.7 14 8 C11.69 8 9.38 8 7 8 C7 5.69 7 3.38 7 1 C4.69 1.33 2.38 1.66 0 2 C0 1.34 0 0.68 0 0 Z " fill="#4C789D" transform="translate(130,104)"/>
<path d="M0 0 C0.33 0.66 0.66 1.32 1 2 C0.34 2.86625 -0.32 3.7325 -1 4.625 C-3.12695385 8.21423463 -3.38790972 9.92694798 -3 14 C-2.34 14.33 -1.68 14.66 -1 15 C-1.75 17.4375 -1.75 17.4375 -3 20 C-5.125 20.8125 -5.125 20.8125 -7 21 C-7 21.99 -7 22.98 -7 24 C-8.32 23.67 -9.64 23.34 -11 23 C-10 21 -10 21 -7 20 C-7.33 19.34 -7.66 18.68 -8 18 C-8.82563934 13.68832788 -8.55094881 11.89694949 -6.21484375 8.09375 C-4.2035713 5.34110905 -2.14583616 2.64876651 0 0 Z " fill="#DF711A" transform="translate(88,40)"/>
<path d="M0 0 C0.66 0.33 1.32 0.66 2 1 C1.98839844 1.97582031 1.97679688 2.95164062 1.96484375 3.95703125 C1.95582031 5.22933594 1.94679688 6.50164062 1.9375 7.8125 C1.92589844 9.07707031 1.91429688 10.34164062 1.90234375 11.64453125 C1.83840884 14.99605237 1.83840884 14.99605237 3 18 C3.0685495 19.89470816 3.08480372 21.7916834 3.0625 23.6875 C3.05347656 24.68136719 3.04445313 25.67523438 3.03515625 26.69921875 C3.02355469 27.45847656 3.01195313 28.21773437 3 29 C1.02 29.99 1.02 29.99 -1 31 C-1.19592461 27.68794116 -1.38032746 24.37534146 -1.5625 21.0625 C-1.61857422 20.11697266 -1.67464844 19.17144531 -1.73242188 18.19726562 C-1.78076172 17.29814453 -1.82910156 16.39902344 -1.87890625 15.47265625 C-1.9260376 14.64000244 -1.97316895 13.80734863 -2.02172852 12.94946289 C-2 11 -2 11 -1 10 C-0.76712992 8.31816052 -0.58735834 6.6287584 -0.4375 4.9375 C-0.35371094 4.01839844 -0.26992187 3.09929687 -0.18359375 2.15234375 C-0.12300781 1.44207031 -0.06242187 0.73179688 0 0 Z " fill="#E57014" transform="translate(70,99)"/>
<path d="M0 0 C0.91007812 0.10183594 1.82015625 0.20367187 2.7578125 0.30859375 C3.45648438 0.39238281 4.15515625 0.47617188 4.875 0.5625 C4.545 1.8825 4.215 3.2025 3.875 4.5625 C2.225 4.5625 0.575 4.5625 -1.125 4.5625 C-1.785 6.2125 -2.445 7.8625 -3.125 9.5625 C-4.115 9.2325 -5.105 8.9025 -6.125 8.5625 C-6.455 7.5725 -6.785 6.5825 -7.125 5.5625 C-7.785 5.5625 -8.445 5.5625 -9.125 5.5625 C-9.455 6.2225 -9.785 6.8825 -10.125 7.5625 C-10.785 7.2325 -11.445 6.9025 -12.125 6.5625 C-6.23727545 -0.71968563 -6.23727545 -0.71968563 0 0 Z " fill="#065598" transform="translate(103.125,96.4375)"/>
<path d="M0 0 C1.60725635 3.21451269 1.05748185 6.43612536 1 10 C-3.33400534 11.44466845 -7.47615448 11.67713611 -12 11 C-14.2902332 9.55087014 -15.34557976 8.20589365 -17 6 C-16.34 5.34 -15.68 4.68 -15 4 C-14.01 5.485 -14.01 5.485 -13 7 C-10.89689618 7.40197129 -10.89689618 7.40197129 -8.5625 7.25 C-7.78003906 7.23453125 -6.99757812 7.2190625 -6.19140625 7.203125 C-3.82318041 7.0673481 -3.82318041 7.0673481 -1 6 C-1 4.68 -1 3.36 -1 2 C-2.98 2 -4.96 2 -7 2 C-7 1.67 -7 1.34 -7 1 C-2.25 0 -2.25 0 0 0 Z " fill="#3B6990" transform="translate(144,133)"/>
<path d="M0 0 C1.63001953 0.01353516 1.63001953 0.01353516 3.29296875 0.02734375 C4.12441406 0.03894531 4.95585938 0.05054687 5.8125 0.0625 C4.94140625 2.51171875 4.94140625 2.51171875 3.8125 5.0625 C-0.48859917 6.7568724 -5.61121745 6.15223103 -10.1875 6.0625 C-9.8575 4.4125 -9.5275 2.7625 -9.1875 1.0625 C-5.90230525 -0.03256492 -3.45086585 -0.03710608 0 0 Z " fill="#0E5591" transform="translate(108.1875,80.9375)"/>
<path d="M0 0 C0.95777344 0.00902344 1.91554687 0.01804687 2.90234375 0.02734375 C3.97162109 0.04474609 3.97162109 0.04474609 5.0625 0.0625 C5.0625 0.3925 5.0625 0.7225 5.0625 1.0625 C-2.8575 1.5575 -2.8575 1.5575 -10.9375 2.0625 C-11.2675 3.7125 -11.5975 5.3625 -11.9375 7.0625 C-16.3925 7.5575 -16.3925 7.5575 -20.9375 8.0625 C-20.6075 7.4025 -20.2775 6.7425 -19.9375 6.0625 C-22.2475 5.7325 -24.5575 5.4025 -26.9375 5.0625 C-26.9375 4.7325 -26.9375 4.4025 -26.9375 4.0625 C-24.7506784 3.58024669 -22.56300745 3.10184417 -20.375 2.625 C-19.15683594 2.35816406 -17.93867187 2.09132813 -16.68359375 1.81640625 C-11.08045642 0.68876756 -5.72001959 -0.07061753 0 0 Z " fill="#1C5E94" transform="translate(132.9375,75.9375)"/>
<path d="M0 0 C0.33 1.32 0.66 2.64 1 4 C-6.37937085 11.0447055 -11.58294102 15.35499342 -22.08203125 15.30078125 C-24 15 -24 15 -26 13 C-25.23816406 12.98582031 -24.47632812 12.97164062 -23.69140625 12.95703125 C-16.2482807 12.61321646 -11.15722441 11.2136561 -5 7 C-5.33 6.01 -5.66 5.02 -6 4 C-4.02 2.68 -2.04 1.36 0 0 Z " fill="#BA8C6A" transform="translate(120,159)"/>
<path d="M0 0 C0.66 0 1.32 0 2 0 C1.34 1.98 0.68 3.96 0 6 C0.433125 5.505 0.86625 5.01 1.3125 4.5 C3 3 3 3 6 3 C6.66 5.31 7.32 7.62 8 10 C8.66 10 9.32 10 10 10 C10 10.66 10 11.32 10 12 C7.4375 12.4375 7.4375 12.4375 4 12 C1.3796981 9.91317274 -0.8158151 7.53313752 -3 5 C-1.625 2.5 -1.625 2.5 0 0 Z " fill="#E66F12" transform="translate(86,158)"/>
<path d="M0 0 C0.14103698 4.43930674 -0.33202823 8.35834001 -1.3125 12.6875 C-1.55613281 13.80511719 -1.79976563 14.92273438 -2.05078125 16.07421875 C-2.98032229 18.9393473 -3.67843712 20.15965743 -6 22 C-5.85879984 19.41633755 -5.71221667 16.83317115 -5.5625 14.25 C-5.52318359 13.52039063 -5.48386719 12.79078125 -5.44335938 12.0390625 C-5.02000907 4.87467273 -5.02000907 4.87467273 -4 2 C-1 0 -1 0 0 0 Z " fill="#E57012" transform="translate(75,76)"/>
<path d="M0 0 C0.33 0.66 0.66 1.32 1 2 C-4.445 2.495 -4.445 2.495 -10 3 C-10 4.98 -10 6.96 -10 9 C-7.525 9.99 -7.525 9.99 -5 11 C-6.8125 11.625 -6.8125 11.625 -9 12 C-9.99 11.34 -10.98 10.68 -12 10 C-12.33 10.99 -12.66 11.98 -13 13 C-13.99 13 -14.98 13 -16 13 C-15.34 11.68 -14.68 10.36 -14 9 C-13.34 9 -12.68 9 -12 9 C-12.33 7.02 -12.66 5.04 -13 3 C-8.51925805 -0.36055646 -5.39449293 -0.27429625 0 0 Z " fill="#4275A0" transform="translate(112,103)"/>
<path d="M0 0 C0.33 0 0.66 0 1 0 C1.01981934 0.57331055 1.03963867 1.14662109 1.06005859 1.73730469 C1.44336662 12.29627614 1.90059524 22.61778738 4 33 C4.33905932 34.99903724 4.67375421 36.99883164 5 39 C4.67 38.34 4.34 37.68 4 37 C3.34 37 2.68 37 2 37 C-0.18751681 29.08532302 -0.23376006 21.61541991 -0.125 13.4375 C-0.11597656 12.14263672 -0.10695313 10.84777344 -0.09765625 9.51367188 C-0.07425094 6.34225229 -0.04146228 3.17122627 0 0 Z " fill="#BD906D" transform="translate(74,99)"/>
<path d="M0 0 C0.515625 0.66 1.03125 1.32 1.5625 2 C8.13489396 10.14730329 8.13489396 10.14730329 16 17 C14.68 17 13.36 17 12 17 C12 16.34 12 15.68 12 15 C10.02 14.34 8.04 13.68 6 13 C5.67 13.99 5.34 14.98 5 16 C4.34 16 3.68 16 3 16 C3.57584432 13.61435923 4.22227595 11.33317216 5 9 C4.01 8.67 3.02 8.34 2 8 C2 6.68 2 5.36 2 4 C1.34 4 0.68 4 0 4 C0 2.68 0 1.36 0 0 Z " fill="#DB7626" transform="translate(83,148)"/>
<path d="M0 0 C3.465 2.475 3.465 2.475 7 5 C6.67 5.66 6.34 6.32 6 7 C5.51015625 6.67257813 5.0203125 6.34515625 4.515625 6.0078125 C0.95730437 4.58227411 -2.48203011 4.78845652 -6.25 4.875 C-6.99507813 4.88402344 -7.74015625 4.89304687 -8.5078125 4.90234375 C-10.33868059 4.92581642 -12.16938238 4.96168475 -14 5 C-13.67 4.01 -13.34 3.02 -13 2 C-8.71 2 -4.42 2 0 2 C0 1.34 0 0.68 0 0 Z " fill="#CD946A" transform="translate(118,36)"/>
<path d="M0 0 C0.99 0.66 1.98 1.32 3 2 C3.36328125 4.3125 3.36328125 4.3125 3.3125 7 C3.30863281 7.886875 3.30476562 8.77375 3.30078125 9.6875 C3 12 3 12 1 14 C0.34 14 -0.32 14 -1 14 C-1.33 11.36 -1.66 8.72 -2 6 C-1.34 6 -0.68 6 0 6 C0 4.02 0 2.04 0 0 Z " fill="#4B7190" transform="translate(175,87)"/>
<path d="M0 0 C5.61 0.66 11.22 1.32 17 2 C12.63056007 4.18471997 10.31866362 4.26897112 5.5 4.25 C4.1903125 4.25515625 2.880625 4.2603125 1.53125 4.265625 C-1.65242072 4.02614534 -3.36102529 3.69648375 -6 2 C-4.02 2 -2.04 2 0 2 C0 1.34 0 0.68 0 0 Z " fill="#537592" transform="translate(34,159)"/>
<path d="M0 0 C1.21236328 0.04060547 1.21236328 0.04060547 2.44921875 0.08203125 C3.06410156 0.11683594 3.67898437 0.15164062 4.3125 0.1875 C4.6425 0.8475 4.9725 1.5075 5.3125 2.1875 C6.3025 2.5175 7.2925 2.8475 8.3125 3.1875 C7.3125 4.1875 7.3125 4.1875 5.203125 4.3203125 C-3.53641548 4.29445587 -3.53641548 4.29445587 -7.6875 3.1875 C-5.26849268 0.20484049 -3.789448 -0.16475861 0 0 Z " fill="#E27117" transform="translate(106.6875,32.8125)"/>
<path d="M0 0 C-3.01887244 3.48331435 -5.56909529 4.79157144 -10 6 C-9.34 5.01 -8.68 4.02 -8 3 C-10.97 2.67 -13.94 2.34 -17 2 C-17 1.34 -17 0.68 -17 0 C-16.39671875 0.01160156 -15.7934375 0.02320313 -15.171875 0.03515625 C-14.37265625 0.04417969 -13.5734375 0.05320313 -12.75 0.0625 C-11.96109375 0.07410156 -11.1721875 0.08570313 -10.359375 0.09765625 C-0.91264668 -0.29335072 -0.91264668 -0.29335072 0 0 Z " fill="#D67628" transform="translate(116,165)"/>
<path d="M0 0 C2.4750171 1.11431765 4.67883419 2.58150978 7 4 C7 4.66 7 5.32 7 6 C3.7 6 0.4 6 -3 6 C-2.625 3.5625 -2.625 3.5625 -2 1 C-1.34 0.67 -0.68 0.34 0 0 Z " fill="#17578C" transform="translate(27,155)"/>
<path d="M0 0 C0.99 0.66 1.98 1.32 3 2 C-1.1485655 5.29024161 -4.10839461 6.13942906 -9.375 6.125 C-10.77878906 6.12886719 -10.77878906 6.12886719 -12.2109375 6.1328125 C-14.90729747 6.00441441 -17.37271509 5.60188709 -20 5 C-20 4.67 -20 4.34 -20 4 C-14.06 4 -8.12 4 -2 4 C-2 3.34 -2 2.68 -2 2 C-1.34 2 -0.68 2 0 2 C0 1.34 0 0.68 0 0 Z " fill="#155284" transform="translate(111,137)"/>
<path d="M0 0 C0 1.32 0 2.64 0 4 C-3.08888522 6.05925681 -3.70935927 6.2390374 -7.1875 6.125 C-9.0746875 6.063125 -9.0746875 6.063125 -11 6 C-10.375 4.125 -10.375 4.125 -9 2 C-5.80798426 0.64169543 -3.47289374 0 0 0 Z " fill="#015297" transform="translate(143,135)"/>
<path d="M0 0 C0.33 0 0.66 0 1 0 C0.67 2.64 0.34 5.28 0 8 C-0.66 8 -1.32 8 -2 8 C-1.96519531 8.68707031 -1.93039063 9.37414062 -1.89453125 10.08203125 C-1.86746094 10.98308594 -1.84039062 11.88414063 -1.8125 12.8125 C-1.76029297 14.15248047 -1.76029297 14.15248047 -1.70703125 15.51953125 C-2 18 -2 18 -5 21 C-5 18.03 -5 15.06 -5 12 C-4.34 12 -3.68 12 -3 12 C-2.87625 10.948125 -2.7525 9.89625 -2.625 8.8125 C-2.08859218 5.54041229 -1.36119965 2.99463924 0 0 Z " fill="#DF721F" transform="translate(72,91)"/>
<path d="M0 0 C-0.56847656 0.40089844 -1.13695313 0.80179688 -1.72265625 1.21484375 C-7.54719933 5.50302989 -11.83772446 10.09786652 -16 16 C-16.33 15.34 -16.66 14.68 -17 14 C-15.9218837 12.41310971 -14.83726048 10.83063918 -13.75 9.25 C-13.14671875 8.36828125 -12.5434375 7.4865625 -11.921875 6.578125 C-5.62135922 -1.87378641 -5.62135922 -1.87378641 0 0 Z " fill="#A4846C" transform="translate(104,42)"/>
<path d="M0 0 C0.66 0 1.32 0 2 0 C2.41467342 8.01701946 0.85939879 15.21930149 -1 23 C-1.33 23 -1.66 23 -2 23 C-2.02688151 21.35425434 -2.04634123 19.70838587 -2.0625 18.0625 C-2.07410156 17.14597656 -2.08570313 16.22945312 -2.09765625 15.28515625 C-2 13 -2 13 -1 12 C-0.76572222 9.98405418 -0.58663876 7.961526 -0.4375 5.9375 C-0.35371094 4.83277344 -0.26992187 3.72804688 -0.18359375 2.58984375 C-0.12300781 1.73519531 -0.06242188 0.88054687 0 0 Z " fill="#527392" transform="translate(160,111)"/>
<path d="M0 0 C6.13053511 -0.32712342 10.62669111 -0.39366878 16 3 C16 3.99 16 4.98 16 6 C12.37 6 8.74 6 5 6 C5 5.67 5 5.34 5 5 C6.32 4.67 7.64 4.34 9 4 C9 3.01 9 2.02 9 1 C6.03 1 3.06 1 0 1 C0 0.67 0 0.34 0 0 Z " fill="#D97C34" transform="translate(102,32)"/>
<path d="M0 0 C2.475 0.495 2.475 0.495 5 1 C6.125 8.75 6.125 8.75 5 11 C2.4375 11.625 2.4375 11.625 0 12 C0.33 11.34 0.66 10.68 1 10 C1.66 10 2.32 10 3 10 C3.25069913 7.62570704 3.25069913 7.62570704 3 5 C1.56249809 3.31201173 1.56249809 3.31201173 0 2 C0 1.34 0 0.68 0 0 Z " fill="#18588B" transform="translate(104,123)"/>
<path d="M0 0 C0 0.66 0 1.32 0 2 C-0.99 2.33 -1.98 2.66 -3 3 C-3.66 2.67 -4.32 2.34 -5 2 C-8 1.75 -8 1.75 -11 2 C-13.5654594 4.5654594 -13.54046087 6.47686668 -14 10 C-14.33 10 -14.66 10 -15 10 C-15.29296875 3.9453125 -15.29296875 3.9453125 -15 2 C-10.00217593 -1.33188271 -5.76283205 -1.23489258 0 0 Z " fill="#FCECD7" transform="translate(166,94)"/>
<path d="M0 0 C2.4750171 1.11431765 4.67883419 2.58150978 7 4 C6.67 4.66 6.34 5.32 6 6 C3.6859378 6.73075648 1.35171131 7.40138258 -1 8 C-1 7.34 -1 6.68 -1 6 C-0.01 5.67 0.98 5.34 2 5 C2 4.34 2 3.68 2 3 C1.34 2.67 0.68 2.34 0 2 C-0.33 2.66 -0.66 3.32 -1 4 C-2.65 4 -4.3 4 -6 4 C-4.03617993 2.49440461 -2.21736634 1.10868317 0 0 Z " fill="#205C90" transform="translate(56,99)"/>
<path d="M0 0 C-0.61875 0.2475 -1.2375 0.495 -1.875 0.75 C-4.42503925 2.25002309 -4.76222348 3.3697249 -6 6 C-7.29470975 7.37086915 -8.62150897 8.71340837 -10 10 C-9.67 8.68 -9.34 7.36 -9 6 C-9.99 6 -10.98 6 -12 6 C-12 5.34 -12 4.68 -12 4 C-10.35 4 -8.7 4 -7 4 C-6.67 2.68 -6.34 1.36 -6 0 C-2.25 -1.125 -2.25 -1.125 0 0 Z " fill="#D1752E" transform="translate(98,44)"/>
<path d="M0 0 C0.99 0 1.98 0 3 0 C1.68 5.28 0.36 10.56 -1 16 C-1.33 16 -1.66 16 -2 16 C-2.20413361 10.26157749 -2.27141454 5.39460953 0 0 Z " fill="#AE8E76" transform="translate(78,72)"/>
<path d="M0 0 C0.66 0.33 1.32 0.66 2 1 C0.515 3.475 0.515 3.475 -1 6 C-0.34 6.33 0.32 6.66 1 7 C-0.65 7.33 -2.3 7.66 -4 8 C-4 6.02 -4 4.04 -4 2 C-2.125 0.9375 -2.125 0.9375 0 0 Z " fill="#23517D" transform="translate(78,89)"/>
<path d="M0 0 C4.75 0.75 4.75 0.75 7 3 C6.01 3.33 5.02 3.66 4 4 C3.34 3.67 2.68 3.34 2 3 C1.67 4.65 1.34 6.3 1 8 C1.99 8.33 2.98 8.66 4 9 C3.01 9.495 3.01 9.495 2 10 C1.01 9.34 0.02 8.68 -1 8 C-0.67 5.36 -0.34 2.72 0 0 Z " fill="#2B6391" transform="translate(87,131)"/>
<path d="M0 0 C0.99 0.33 1.98 0.66 3 1 C3 2.98 3 4.96 3 7 C2.34 7 1.68 7 1 7 C1 6.34 1 5.68 1 5 C-0.98 5.99 -0.98 5.99 -3 7 C-2.25 2.25 -2.25 2.25 0 0 Z " fill="#E07219" transform="translate(161,99)"/>
<path d="M0 0 C1.32 0.33 2.64 0.66 4 1 C3.67 2.65 3.34 4.3 3 6 C1.35 5.67 -0.3 5.34 -2 5 C-2.33 5.66 -2.66 6.32 -3 7 C-3.66 6.67 -4.32 6.34 -5 6 C-3.35 4.02 -1.7 2.04 0 0 Z " fill="#1A5A90" transform="translate(96,97)"/>
<path d="M0 0 C6.20970773 -0.33266291 10.28264895 0.54970669 16 3 C15.67 3.99 15.34 4.98 15 6 C14.41992188 5.72285156 13.83984375 5.44570312 13.2421875 5.16015625 C8.82158159 3.11033734 4.90485647 1.5030622 0 1 C0 0.67 0 0.34 0 0 Z " fill="#3D6F99" transform="translate(154,84)"/>
<path d="M0 0 C0.33 0.66 0.66 1.32 1 2 C0.071875 3.3303125 0.071875 3.3303125 -0.875 4.6875 C-2.65397741 7.46061184 -3.91083602 9.9140354 -5 13 C-5.99 13 -6.98 13 -8 13 C-6.40956621 7.91061189 -3.2553049 4.12543357 0 0 Z " fill="#DA813B" transform="translate(88,40)"/>
<path d="M0 0 C0.75 1.75 0.75 1.75 1 4 C-0.9375 6.25 -0.9375 6.25 -3 8 C-5 7 -5 7 -6 4 C-4.02 2.68 -2.04 1.36 0 0 Z " fill="#BD8D67" transform="translate(120,159)"/>
<path d="M0 0 C3.18005028 3.88672813 6.10554447 7.89952133 9 12 C6 12 6 12 3.8125 10.25 C2 8 2 8 2 4 C1.34 4 0.68 4 0 4 C0 2.68 0 1.36 0 0 Z " fill="#D7823B" transform="translate(83,148)"/>
<path d="M0 0 C6.09411765 2.14117647 6.09411765 2.14117647 8 5 C7.6875 7.6875 7.6875 7.6875 7 10 C6.34 9.67 5.68 9.34 5 9 C5 7.35 5 5.7 5 4 C2.525 3.01 2.525 3.01 0 2 C0 1.34 0 0.68 0 0 Z " fill="#D8ECF5" transform="translate(100,123)"/>
<path d="M0 0 C0.66 0 1.32 0 2 0 C2 2.97 2 5.94 2 9 C0.35 8.67 -1.3 8.34 -3 8 C-3 7.34 -3 6.68 -3 6 C-2.34 5.67 -1.68 5.34 -1 5 C-0.34444881 2.47266765 -0.34444881 2.47266765 0 0 Z " fill="#436C8E" transform="translate(118,98)"/>
<path d="M0 0 C0.33 0 0.66 0 1 0 C1 1.98 1 3.96 1 6 C2.32 5.67 3.64 5.34 5 5 C4.67 6.32 4.34 7.64 4 9 C5.98 9 7.96 9 10 9 C10 9.33 10 9.66 10 10 C8.72125 10.061875 7.4425 10.12375 6.125 10.1875 C5.40570313 10.22230469 4.68640625 10.25710937 3.9453125 10.29296875 C3.30335938 10.19628906 2.66140625 10.09960938 2 10 C-0.4294516 6.3558226 -0.16179575 4.28758728 0 0 Z " fill="#DA7C32" transform="translate(152,98)"/>
<path d="M0 0 C0.8971875 0.309375 0.8971875 0.309375 1.8125 0.625 C0.8225 0.955 -0.1675 1.285 -1.1875 1.625 C-1.1875 2.285 -1.1875 2.945 -1.1875 3.625 C-5.6425 5.11 -5.6425 5.11 -10.1875 6.625 C-3.20231959 -0.54896907 -3.20231959 -0.54896907 0 0 Z " fill="#D88039" transform="translate(100.1875,33.375)"/>
<path d="M0 0 C1.32 0.66 2.64 1.32 4 2 C3.01 3.485 3.01 3.485 2 5 C1.835 6.19625 1.67 7.3925 1.5 8.625 C1.335 9.73875 1.17 10.8525 1 12 C0.01 12.495 0.01 12.495 -1 13 C-0.67 8.71 -0.34 4.42 0 0 Z " fill="#1F5D8F" transform="translate(152,111)"/>
<path d="M0 0 C0.91007813 0.00902344 1.82015625 0.01804687 2.7578125 0.02734375 C3.45648438 0.03894531 4.15515625 0.05054687 4.875 0.0625 C4.875 0.3925 4.875 0.7225 4.875 1.0625 C2.235 1.0625 -0.405 1.0625 -3.125 1.0625 C-3.125 3.0425 -3.125 5.0225 -3.125 7.0625 C-3.785 6.0725 -4.445 5.0825 -5.125 4.0625 C-5.785 4.0625 -6.445 4.0625 -7.125 4.0625 C-7.125 3.0725 -7.125 2.0825 -7.125 1.0625 C-4.60024538 -0.19987731 -2.81299534 -0.03606404 0 0 Z " fill="#DEF2F8" transform="translate(133.125,102.9375)"/>
<path d="M0 0 C0 3.58912412 -0.66436554 4.10857029 -3 6.6875 C-3.556875 7.31011719 -4.11375 7.93273437 -4.6875 8.57421875 C-5.120625 9.04472656 -5.55375 9.51523438 -6 10 C-7.32 9.34 -8.64 8.68 -10 8 C-9.44570312 7.59007812 -8.89140625 7.18015625 -8.3203125 6.7578125 C-7.59585938 6.21898437 -6.87140625 5.68015625 -6.125 5.125 C-5.04605469 4.32449219 -5.04605469 4.32449219 -3.9453125 3.5078125 C-1.91747368 2.00126838 -1.91747368 2.00126838 0 0 Z " fill="#E9E9E8" transform="translate(120,163)"/>
<path d="M0 0 C1.134375 0.020625 2.26875 0.04125 3.4375 0.0625 C0.99307433 2.50692567 -0.1230528 2.47530116 -3.5 2.8125 C-4.81291016 2.95945313 -4.81291016 2.95945313 -6.15234375 3.109375 C-8.5625 3.0625 -8.5625 3.0625 -11.5625 1.0625 C-10.428125 1.083125 -9.29375 1.10375 -8.125 1.125 C-4.04050174 1.05334214 -4.08449826 0.07165786 0 0 Z " fill="#F6D2B0" transform="translate(110.5625,162.9375)"/>
<path d="M0 0 C1.32 0.66 2.64 1.32 4 2 C3.67 3.65 3.34 5.3 3 7 C2.34 7 1.68 7 1 7 C-0.0625 5.1875 -0.0625 5.1875 -1 3 C-0.67 2.01 -0.34 1.02 0 0 Z " fill="#E67012" transform="translate(76,144)"/>
<path d="M0 0 C1.32 0 2.64 0 4 0 C4 1.65 4 3.3 4 5 C2.68 5.33 1.36 5.66 0 6 C0 4.02 0 2.04 0 0 Z " fill="#E96F10" transform="translate(71,132)"/>
<path d="M0 0 C0.99 0 1.98 0 3 0 C1.41037341 4.03520597 -0.28232318 8.01811282 -2 12 C-3.12377697 8.69564916 -2.89554742 6.9493138 -1.5625 3.75 C-1.27503906 3.04359375 -0.98757812 2.3371875 -0.69140625 1.609375 C-0.46324219 1.07828125 -0.23507813 0.5471875 0 0 Z " fill="#FEEED8" transform="translate(77,51)"/>
<path d="M0 0 C5.75 1.625 5.75 1.625 8 5 C8 6.32 8 7.64 8 9 C7.34 9 6.68 9 6 9 C5.566875 8.071875 5.13375 7.14375 4.6875 6.1875 C3.27961373 3.52815927 2.23876444 1.91894095 0 0 Z " fill="#F4E6D4" transform="translate(120,37)"/>
<path d="M0 0 C1.5994614 3.19892281 2.42595236 5.35462576 3.125 8.75 C3.29257813 9.54921875 3.46015625 10.3484375 3.6328125 11.171875 C3.81457031 12.07679688 3.81457031 12.07679688 4 13 C3.01 12.67 2.02 12.34 1 12 C0.67 8.04 0.34 4.08 0 0 Z " fill="#FBE5C9" transform="translate(69,136)"/>
<path d="M0 0 C0 3.86695678 -1.41909971 6.5088452 -3 10 C-3.99 10 -4.98 10 -6 10 C-4.6302836 6.00499382 -2.74277578 3.19990508 0 0 Z " fill="#245F91" transform="translate(18,127)"/>
<path d="M0 0 C1.08667969 0.29197266 1.08667969 0.29197266 2.1953125 0.58984375 C2.74960938 0.74582031 3.30390625 0.90179688 3.875 1.0625 C3.875 1.3925 3.875 1.7225 3.875 2.0625 C2.59625 2.371875 1.3175 2.68125 0 3 C-2.22601675 3.53855244 -4.07239999 4.0362 -6.125 5.0625 C-6.125 3.4125 -6.125 1.7625 -6.125 0.0625 C-3.57797384 -1.21101308 -2.6967055 -0.73941925 0 0 Z " fill="#0F4F85" transform="translate(106.125,100.9375)"/>
<path d="M0 0 C1.28934684 2.57869369 0.82144674 3.65999235 0.1875 6.4375 C0.01605469 7.21996094 -0.15539062 8.00242187 -0.33203125 8.80859375 C-1 11 -1 11 -3 14 C-3.40652968 8.57960425 -2.03993514 4.92984325 0 0 Z " fill="#D47429" transform="translate(76,76)"/>
<path d="M0 0 C0.66 0.33 1.32 0.66 2 1 C0.73760288 1.86658615 -0.53527501 2.71792059 -1.8125 3.5625 C-2.87404297 4.27599609 -2.87404297 4.27599609 -3.95703125 5.00390625 C-6 6 -6 6 -9 5 C-2.25 1.125 -2.25 1.125 0 0 Z " fill="#A58369" transform="translate(114,167)"/>
<path d="M0 0 C3.3 1.98 6.6 3.96 10 6 C6 7 6 7 3.3125 5.8125 C1 4 1 4 0 0 Z " fill="#D9F1FA" transform="translate(12,153)"/>
<path d="M0 0 C0.33 0 0.66 0 1 0 C1.28571429 7.42857143 1.28571429 7.42857143 -1 11 C-2.0625 9.1875 -2.0625 9.1875 -3 7 C-2.1654738 4.49642139 -1.20628008 2.33214148 0 0 Z " fill="#E3F4FB" transform="translate(148,131)"/>
<path d="M0 0 C0.33 0 0.66 0 1 0 C1 1.65 1 3.3 1 5 C2.65 5.33 4.3 5.66 6 6 C6 6.66 6 7.32 6 8 C4.33388095 8.042721 2.66617115 8.04063832 1 8 C0 7 0 7 -0.0625 3.4375 C-0.041875 2.303125 -0.02125 1.16875 0 0 Z " fill="#427094" transform="translate(122,111)"/>
<path d="M0 0 C2.64 0 5.28 0 8 0 C7.34 1.32 6.68 2.64 6 4 C4.125 3.6875 4.125 3.6875 2 3 C1.34 2.01 0.68 1.02 0 0 Z " fill="#025093" transform="translate(106,81)"/>
<path d="M0 0 C0.33 0.99 0.66 1.98 1 3 C0.67 3.66 0.34 4.32 0 5 C-1.98 5 -3.96 5 -6 5 C-2.25 1.125 -2.25 1.125 0 0 Z " fill="#195C95" transform="translate(38,110)"/>
<path d="M0 0 C0.66 0.33 1.32 0.66 2 1 C2 1.99 2 2.98 2 4 C1.34 4 0.68 4 0 4 C0 4.99 0 5.98 0 7 C-1.32 6.67 -2.64 6.34 -4 6 C-3 4 -3 4 0 3 C0 2.01 0 1.02 0 0 Z " fill="#E76F12" transform="translate(81,57)"/>
<path d="M0 0 C-0.99 1.485 -0.99 1.485 -2 3 C-3.98 2.34 -5.96 1.68 -8 1 C-4.93251126 -0.86240388 -3.40254489 -1.2151946 0 0 Z " fill="#D17A37" transform="translate(116,165)"/>
<path d="M0 0 C2.15377564 2.62198774 3.40072174 4.64404172 4 8 C2.68 7.34 1.36 6.68 0 6 C0 4.02 0 2.04 0 0 Z " fill="#FBE6CB" transform="translate(73,149)"/>
<path d="M0 0 C0.66 0.33 1.32 0.66 2 1 C1.01 3.97 0.02 6.94 -1 10 C-1.33 10 -1.66 10 -2 10 C-2.6875 7.25 -2.6875 7.25 -3 4 C-1.5625 1.625 -1.5625 1.625 0 0 Z " fill="#DFF4FC" transform="translate(91,100)"/>
<path d="M0 0 C-4.95 1.485 -4.95 1.485 -10 3 C-9.67 2.01 -9.34 1.02 -9 0 C-5.32431536 -0.91892116 -3.83619425 -0.95904856 0 0 Z " fill="#D7EEF9" transform="translate(86,87)"/>
<path d="M0 0 C3.3 0 6.6 0 10 0 C10 0.33 10 0.66 10 1 C6.37 1.66 2.74 2.32 -1 3 C-0.67 2.01 -0.34 1.02 0 0 Z " fill="#B07D57" transform="translate(105,38)"/>
</svg>
